<svg width="200" height="258" viewBox="0 0 200 258" fill="none" xmlns="http://www.w3.org/2000/svg">
<path d="M16.5 62.575C16.5 56.1003 20.178 50.1877 25.9859 47.3258L95.4859 13.0794C106.783 7.51264 120 15.7343 120 28.3286V93.3659C120 98.2217 117.923 102.846 114.294 106.072L44.7942 167.85C33.8309 177.595 16.5 169.812 16.5 155.144V62.575Z" fill="white"/>
<path d="M26.394 171.123C15.5362 165.611 13.8251 150.805 23.1393 142.961L90.732 86.0403C97.0865 80.689 106.378 80.7142 112.703 86.0997L179.892 143.305C189.179 151.212 187.363 166.037 176.443 171.47L108.649 205.195C103.837 207.589 98.175 207.566 93.3819 205.132L26.394 171.123Z" fill="white"/>
<path d="M88.5 28.4548C88.5 15.7733 101.884 7.55644 113.193 13.2948L178.229 46.2958C183.92 49.1834 187.514 55.0147 187.537 61.396L187.863 154.218C187.915 169.071 170.232 176.844 159.324 166.762L93.9614 106.351C90.4797 103.133 88.5 98.6071 88.5 93.8662V28.4548Z" fill="white"/>
<path d="M104 26.0113C104 23.0284 107.147 21.0949 109.808 22.4433L175.808 55.8892C177.153 56.5706 178 57.9499 178 59.4573V152.489C178 155.472 174.853 157.405 172.192 156.057L106.192 122.611C104.847 121.929 104 120.55 104 119.043V26.0113Z" fill="#FF7700"/>
<path d="M79.5 37.4913C79.5 34.5132 82.6381 32.5794 85.2983 33.9184L152.798 67.8919C154.148 68.5713 155 69.9536 155 71.4648V150.047C155 153.016 151.88 154.95 149.221 153.629L81.7206 120.103C80.3603 119.427 79.5 118.039 79.5 116.521V37.4913Z" fill="white"/>
<path d="M66 45.0298C66 42.0424 69.1558 40.1092 71.8171 41.4663L139.317 75.8869C140.657 76.57 141.5 77.9466 141.5 79.4503V171.408C141.5 174.394 138.347 176.327 135.685 174.972L68.1854 140.612C66.8444 139.93 66 138.552 66 137.048V45.0298Z" fill="#FF7700"/>
<path d="M42.3651 57.3384C42.4277 54.3979 45.5357 52.5282 48.1628 53.8507L113.799 86.8918C115.148 87.5713 116 88.9535 116 90.4646V176.047C116 179.016 112.88 180.95 110.221 179.629L42.7737 146.129C41.3859 145.44 40.521 144.011 40.554 142.462L42.3651 57.3384Z" fill="white"/>
<path d="M26 64.5177C26 61.5332 29.1502 59.5999 31.8112 60.9513L97.8112 94.4699C99.1541 95.1519 100 96.5303 100 98.0363V190.489C100 193.472 96.8527 195.405 94.1919 194.057L28.1919 160.611C26.8474 159.929 26 158.55 26 157.043V64.5177Z" fill="#FF7700"/>
</svg>
