<svg width="300" height="100" viewBox="0 0 300 100" fill="none" xmlns="http://www.w3.org/2000/svg">
<rect x="81" y="32" width="50" height="50" rx="8" fill="#FF7700"/>
<rect x="81" y="32" width="50" height="50" rx="8" fill="#FF7700"/>
<rect x="66" y="19" width="50" height="50" rx="8" fill="#FF7700"/>
<rect x="66" y="19" width="50" height="50" rx="8" fill="#FF7700"/>
<rect x="73" y="25" width="50" height="50" rx="8" fill="white"/>
<rect x="79" y="33" width="31" height="27" rx="8" fill="#FF7700"/>
<rect x="79" y="33" width="31" height="27" rx="8" fill="#FF7700"/>
<rect x="81" y="35" width="31" height="27" rx="8" fill="#FF7700"/>
<rect x="81" y="35" width="31" height="27" rx="8" fill="white"/>
<path d="M83 45C83 40.5817 86.5817 37 91 37H106C110.418 37 114 40.5817 114 45V56C114 60.4183 110.418 64 106 64H91C86.5817 64 83 60.4183 83 56V45Z" fill="#FF7700"/>
<path d="M83 45C83 40.5817 86.5817 37 91 37H106C110.418 37 114 40.5817 114 45V56C114 60.4183 110.418 64 106 64H91C86.5817 64 83 60.4183 83 56V45Z" fill="#FF7700"/>
<rect x="85" y="39" width="31" height="27" rx="8" fill="#FF7700"/>
<rect x="85" y="39" width="31" height="27" rx="8" fill="white"/>
<rect x="87" y="41" width="31" height="27" rx="8" fill="#FF7700"/>
<rect x="87" y="41" width="31" height="27" rx="8" fill="#FF7700"/>
<path d="M145.648 34.44H154.192V69H145.648V34.44ZM163.412 69V34.44H170.228L187.364 51.768V62.952L169.508 44.904L171.956 43.896V69H163.412ZM184.532 69V34.44H193.028V69H184.532Z" fill="black"/>
<path d="M206.493 38.952C205.181 38.952 204.109 38.584 203.277 37.848C202.445 37.08 202.029 35.992 202.029 34.584C202.029 33.176 202.445 32.104 203.277 31.368C204.109 30.6 205.181 30.216 206.493 30.216C207.837 30.216 208.925 30.6 209.757 31.368C210.589 32.104 211.005 33.176 211.005 34.584C211.005 35.992 210.589 37.08 209.757 37.848C208.925 38.584 207.837 38.952 206.493 38.952ZM202.269 69V50.76C202.269 50.12 202.253 49.304 202.221 48.312C202.221 47.32 202.173 46.36 202.077 45.432C202.013 44.472 201.917 43.704 201.789 43.128L201.933 42.744H210.717V69H202.269ZM217.202 34.44H245.81V41.832H235.73V69H227.234V41.832H217.202V34.44Z" fill="#FF7700"/>
</svg>
