<svg width="299" height="77" viewBox="0 0 299 77" fill="none" xmlns="http://www.w3.org/2000/svg">
<path d="M71 24.2998C166 -21.2002 262 19.6331 264 24.2998" stroke="#FF5900" stroke-width="4" stroke-linecap="round"/>
<path d="M31.0909 27.0909C30.8182 24.7879 29.7121 23 27.7727 21.7273C25.8333 20.4545 23.4545 19.8182 20.6364 19.8182C18.5758 19.8182 16.7727 20.1515 15.2273 20.8182C13.697 21.4848 12.5 22.4015 11.6364 23.5682C10.7879 24.7348 10.3636 26.0606 10.3636 27.5455C10.3636 28.7879 10.6591 29.8561 11.25 30.75C11.8561 31.6288 12.6288 32.3636 13.5682 32.9545C14.5076 33.5303 15.4924 34.0076 16.5227 34.3864C17.553 34.75 18.5 35.0455 19.3636 35.2727L24.0909 36.5455C25.303 36.8636 26.6515 37.303 28.1364 37.8636C29.6364 38.4242 31.0682 39.1894 32.4318 40.1591C33.8106 41.1136 34.947 42.3409 35.8409 43.8409C36.7349 45.3409 37.1818 47.1818 37.1818 49.3636C37.1818 51.8788 36.5227 54.1515 35.2045 56.1818C33.9015 58.2121 31.9924 59.8258 29.4773 61.0227C26.9773 62.2197 23.9394 62.8182 20.3636 62.8182C17.0303 62.8182 14.1439 62.2803 11.7045 61.2045C9.2803 60.1288 7.37121 58.6288 5.97727 56.7045C4.59848 54.7803 3.81818 52.5455 3.63636 50H9.45455C9.60606 51.7576 10.197 53.2121 11.2273 54.3636C12.2727 55.5 13.5909 56.3485 15.1818 56.9091C16.7879 57.4545 18.5152 57.7273 20.3636 57.7273C22.5152 57.7273 24.447 57.3788 26.1591 56.6818C27.8712 55.9697 29.2273 54.9848 30.2273 53.7273C31.2273 52.4545 31.7273 50.9697 31.7273 49.2727C31.7273 47.7273 31.2955 46.4697 30.4318 45.5C29.5682 44.5303 28.4318 43.7424 27.0227 43.1364C25.6136 42.5303 24.0909 42 22.4545 41.5455L16.7273 39.9091C13.0909 38.8636 10.2121 37.3712 8.09091 35.4318C5.9697 33.4924 4.90909 30.9545 4.90909 27.8182C4.90909 25.2121 5.61364 22.9394 7.02273 21C8.44697 19.0455 10.3561 17.5303 12.75 16.4545C15.1591 15.3636 17.8485 14.8182 20.8182 14.8182C23.8182 14.8182 26.4848 15.3561 28.8182 16.4318C31.1515 17.4924 33 18.947 34.3636 20.7955C35.7424 22.6439 36.4697 24.7424 36.5455 27.0909H31.0909ZM50.7216 49.2727L50.6307 42.6364H51.7216L66.9943 27.0909H73.6307L57.358 43.5455H56.9034L50.7216 49.2727ZM45.7216 62V15.4545H51.0852V62H45.7216ZM67.9034 62L54.267 44.7273L58.0852 41L74.7216 62H67.9034ZM80.5341 62V27.0909H85.8977V62H80.5341ZM83.2614 21.2727C82.2159 21.2727 81.3144 20.9167 80.5568 20.2045C79.8144 19.4924 79.4432 18.6364 79.4432 17.6364C79.4432 16.6364 79.8144 15.7803 80.5568 15.0682C81.3144 14.3561 82.2159 14 83.2614 14C84.3068 14 85.2008 14.3561 85.9432 15.0682C86.7008 15.7803 87.0795 16.6364 87.0795 17.6364C87.0795 18.6364 86.7008 19.4924 85.9432 20.2045C85.2008 20.9167 84.3068 21.2727 83.2614 21.2727ZM101.085 15.4545V62H95.7216V15.4545H101.085ZM116.273 15.4545V62H110.909V15.4545H116.273ZM164.278 30H158.642C158.309 28.3788 157.725 26.9545 156.892 25.7273C156.074 24.5 155.074 23.4697 153.892 22.6364C152.725 21.7879 151.43 21.1515 150.006 20.7273C148.581 20.303 147.097 20.0909 145.551 20.0909C142.733 20.0909 140.18 20.803 137.892 22.2273C135.619 23.6515 133.809 25.75 132.46 28.5227C131.127 31.2955 130.46 34.697 130.46 38.7273C130.46 42.7576 131.127 46.1591 132.46 48.9318C133.809 51.7045 135.619 53.803 137.892 55.2273C140.18 56.6515 142.733 57.3636 145.551 57.3636C147.097 57.3636 148.581 57.1515 150.006 56.7273C151.43 56.303 152.725 55.6742 153.892 54.8409C155.074 53.9924 156.074 52.9545 156.892 51.7273C157.725 50.4848 158.309 49.0606 158.642 47.4545H164.278C163.854 49.8333 163.081 51.9621 161.96 53.8409C160.839 55.7197 159.445 57.3182 157.778 58.6364C156.112 59.9394 154.241 60.9318 152.165 61.6136C150.104 62.2955 147.9 62.6364 145.551 62.6364C141.581 62.6364 138.051 61.6667 134.96 59.7273C131.869 57.7879 129.438 55.0303 127.665 51.4545C125.892 47.8788 125.006 43.6364 125.006 38.7273C125.006 33.8182 125.892 29.5758 127.665 26C129.438 22.4242 131.869 19.6667 134.96 17.7273C138.051 15.7879 141.581 14.8182 145.551 14.8182C147.9 14.8182 150.104 15.1591 152.165 15.8409C154.241 16.5227 156.112 17.5227 157.778 18.8409C159.445 20.1439 160.839 21.7348 161.96 23.6136C163.081 25.4773 163.854 27.6061 164.278 30ZM182.932 62.8182C180.72 62.8182 178.712 62.4015 176.909 61.5682C175.106 60.7197 173.674 59.5 172.614 57.9091C171.553 56.303 171.023 54.3636 171.023 52.0909C171.023 50.0909 171.417 48.4697 172.205 47.2273C172.992 45.9697 174.045 44.9848 175.364 44.2727C176.682 43.5606 178.136 43.0303 179.727 42.6818C181.333 42.3182 182.947 42.0303 184.568 41.8182C186.689 41.5455 188.409 41.3409 189.727 41.2045C191.061 41.053 192.03 40.803 192.636 40.4545C193.258 40.1061 193.568 39.5 193.568 38.6364V38.4545C193.568 36.2121 192.955 34.4697 191.727 33.2273C190.515 31.9848 188.674 31.3636 186.205 31.3636C183.644 31.3636 181.636 31.9242 180.182 33.0455C178.727 34.1667 177.705 35.3636 177.114 36.6364L172.023 34.8182C172.932 32.697 174.144 31.0455 175.659 29.8636C177.189 28.6667 178.856 27.8333 180.659 27.3636C182.477 26.8788 184.265 26.6364 186.023 26.6364C187.144 26.6364 188.432 26.7727 189.886 27.0455C191.356 27.303 192.773 27.8409 194.136 28.6591C195.515 29.4773 196.659 30.7121 197.568 32.3636C198.477 34.0152 198.932 36.2273 198.932 39V62H193.568V57.2727H193.295C192.932 58.0303 192.326 58.8409 191.477 59.7045C190.629 60.5682 189.5 61.303 188.091 61.9091C186.682 62.5152 184.962 62.8182 182.932 62.8182ZM183.75 58C185.871 58 187.659 57.5833 189.114 56.75C190.583 55.9167 191.689 54.8409 192.432 53.5227C193.189 52.2045 193.568 50.8182 193.568 49.3636V44.4545C193.341 44.7273 192.841 44.9773 192.068 45.2045C191.311 45.4167 190.432 45.6061 189.432 45.7727C188.447 45.9242 187.485 46.0606 186.545 46.1818C185.621 46.2879 184.871 46.3788 184.295 46.4545C182.902 46.6364 181.598 46.9318 180.386 47.3409C179.189 47.7348 178.22 48.3333 177.477 49.1364C176.75 49.9242 176.386 51 176.386 52.3636C176.386 54.2273 177.076 55.6364 178.455 56.5909C179.848 57.5303 181.614 58 183.75 58ZM208.722 62V27.0909H213.903V32.5455H214.358C215.085 30.6818 216.259 29.2348 217.881 28.2045C219.502 27.1591 221.449 26.6364 223.722 26.6364C226.025 26.6364 227.941 27.1591 229.472 28.2045C231.017 29.2348 232.222 30.6818 233.085 32.5455H233.449C234.343 30.7424 235.684 29.3106 237.472 28.25C239.259 27.1742 241.403 26.6364 243.903 26.6364C247.025 26.6364 249.578 27.6136 251.562 29.5682C253.547 31.5076 254.54 34.5303 254.54 38.6364V62H249.176V38.6364C249.176 36.0606 248.472 34.2197 247.062 33.1136C245.653 32.0076 243.994 31.4545 242.085 31.4545C239.631 31.4545 237.729 32.197 236.381 33.6818C235.032 35.1515 234.358 37.0152 234.358 39.2727V62H228.903V38.0909C228.903 36.1061 228.259 34.5076 226.972 33.2955C225.684 32.0682 224.025 31.4545 221.994 31.4545C220.6 31.4545 219.297 31.8258 218.085 32.5682C216.888 33.3106 215.919 34.3409 215.176 35.6591C214.449 36.9621 214.085 38.4697 214.085 40.1818V62H208.722ZM264.347 75.0909V27.0909H269.528V32.6364H270.165C270.559 32.0303 271.104 31.2576 271.801 30.3182C272.513 29.3636 273.528 28.5152 274.847 27.7727C276.18 27.0152 277.983 26.6364 280.256 26.6364C283.195 26.6364 285.786 27.3712 288.028 28.8409C290.271 30.3106 292.021 32.3939 293.278 35.0909C294.536 37.7879 295.165 40.9697 295.165 44.6364C295.165 48.3333 294.536 51.5379 293.278 54.25C292.021 56.947 290.278 59.0379 288.051 60.5227C285.824 61.9924 283.256 62.7273 280.347 62.7273C278.104 62.7273 276.309 62.3561 274.96 61.6136C273.612 60.8561 272.574 60 271.847 59.0455C271.119 58.0758 270.559 57.2727 270.165 56.6364H269.71V75.0909H264.347ZM269.619 44.5455C269.619 47.1818 270.006 49.5076 270.778 51.5227C271.551 53.5227 272.68 55.0909 274.165 56.2273C275.65 57.3485 277.468 57.9091 279.619 57.9091C281.862 57.9091 283.733 57.3182 285.233 56.1364C286.748 54.9394 287.884 53.3333 288.642 51.3182C289.415 49.2879 289.801 47.0303 289.801 44.5455C289.801 42.0909 289.422 39.8788 288.665 37.9091C287.922 35.9242 286.794 34.3561 285.278 33.2045C283.778 32.0379 281.892 31.4545 279.619 31.4545C277.438 31.4545 275.604 32.0076 274.119 33.1136C272.634 34.2045 271.513 35.7348 270.756 37.7045C269.998 39.6591 269.619 41.9394 269.619 44.5455Z" fill="#008CFF"/>
</svg>
